# xmcd CD database file
#
# Track frame offsets:
#	150
#	19518
#	33834
#	53925
#	70740
#	80792
#	101639
#	128448
#	148216
#	168378
#
# Disc length: 2489 seconds
#
# Revision: 0
# Processed by: cddbd v1.5.1PL0 Copyright (c) Steve Scherf et al.
# Submitted via: CDex 1.51
#
DISCID=8109b70a
DTITLE=久野かおり - Rhapsody
DYEAR=2002
DGENRE=J ポップ
TTITLE0=My Rhapsody
TTITLE1=Set My Free
TTITLE2=美しく奏でよう
TTITLE3=VACANCE
TTITLE4=BUTTERFLY
TTITLE5=地上の楽園
TTITLE6=BULE BOSSA
TTITLE7=TRUE LOVE 〜真実を重ねて〜
TTITLE8=SAILING
TTITLE9=恋のかけ橋
EXTD=YEAR: 2002
EXTT0=
EXTT1=
EXTT2=
EXTT3=
EXTT4=
EXTT5=
EXTT6=
EXTT7=
EXTT8=
EXTT9=
PLAYORDER=
